<svg xmlns="http://www.w3.org/2000/svg" xmlns:xlink="http://www.w3.org/1999/xlink" viewBox="0 0 1361.31 225.49"><defs><style>.cls-1,.cls-10,.cls-11{fill:none;}.cls-2{fill:url(#linear-gradient);}.cls-3{fill:url(#linear-gradient-2);}.cls-4{fill:url(#linear-gradient-3);}.cls-5{fill:url(#linear-gradient-4);}.cls-6{fill:url(#linear-gradient-5);}.cls-7{fill:url(#linear-gradient-6);}.cls-8{fill:url(#linear-gradient-7);}.cls-9{fill:url(#linear-gradient-8);}.cls-10,.cls-11{stroke-width:0.55px;}.cls-10{stroke:url(#linear-gradient-9);}.cls-11{stroke:url(#linear-gradient-10);}.cls-12{fill:url(#linear-gradient-11);}.cls-13{clip-path:url(#clip-path);}.cls-14{fill:url(#linear-gradient-12);}</style><linearGradient id="linear-gradient" x1="255.01" y1="577.2" x2="257.59" y2="577.2" gradientTransform="translate(0 -570.38)" gradientUnits="userSpaceOnUse"><stop offset="0" stop-color="#26a4ff"/><stop offset="1" stop-color="#0d9aff"/></linearGradient><linearGradient id="linear-gradient-2" x1="38.19" y1="608.71" x2="44.93" y2="608.88" xlink:href="#linear-gradient"/><linearGradient id="linear-gradient-3" x1="3.39" y1="712.02" x2="10.13" y2="712.18" xlink:href="#linear-gradient"/><linearGradient id="linear-gradient-4" x1="203.49" y1="740.27" x2="210.23" y2="740.44" xlink:href="#linear-gradient"/><linearGradient id="linear-gradient-5" x1="47.17" y1="682.96" x2="49.75" y2="683.04" xlink:href="#linear-gradient"/><linearGradient id="linear-gradient-6" x1="96.36" y1="572.63" x2="100.44" y2="572.71" xlink:href="#linear-gradient"/><linearGradient id="linear-gradient-7" x1="29.02" y1="657.58" x2="8.71" y2="660.99" xlink:href="#linear-gradient"/><linearGradient id="linear-gradient-8" x1="16.36" y1="567.31" x2="223.95" y2="766.91" gradientTransform="translate(0 -570.38)" gradientUnits="userSpaceOnUse"><stop offset="0" stop-color="#868cff"/><stop offset="1" stop-color="#4318ff"/></linearGradient><linearGradient id="linear-gradient-9" x1="113.17" y1="728.7" x2="105.06" y2="705.82" gradientTransform="translate(0 -570.38)" gradientUnits="userSpaceOnUse"><stop offset="0" stop-color="#3f5fff"/><stop offset="1" stop-color="#3f5fff" stop-opacity="0"/></linearGradient><linearGradient id="linear-gradient-10" x1="113.16" y1="728.63" x2="105.05" y2="705.82" gradientTransform="translate(0 -570.38)" gradientUnits="userSpaceOnUse"><stop offset="0" stop-color="#1da0ff"/><stop offset="1" stop-color="#199fff" stop-opacity="0.13"/></linearGradient><linearGradient id="linear-gradient-11" x1="208.15" y1="610.54" x2="180.02" y2="607.29" xlink:href="#linear-gradient"/><clipPath id="clip-path" transform="translate(0 8.82)"><path class="cls-1" d="M300.62,166.8H254.34V42.37h46.28a69.18,69.18,0,0,1,49.95,17.14,59.37,59.37,0,0,1,17.81,44.87,59.36,59.36,0,0,1-17.81,44.94A69.49,69.49,0,0,1,300.62,166.8Zm30.3-34A38.67,38.67,0,0,0,341,104.38,39,39,0,0,0,330.92,76a41.63,41.63,0,0,0-30.63-10.23H281V143H300A41.62,41.62,0,0,0,330.92,132.76Zm152,10.24v23.8H389.77V42.37H482.5V65.76H415.91V91.89h63.51V115.2H416.24V143Zm66.59,3.16a31.44,31.44,0,0,0,16.65-3.74,11.91,11.91,0,0,0,6-10.57,9.91,9.91,0,0,0-3.83-8.33,25.52,25.52,0,0,0-9.9-4.74l-13.32-3.58-14.65-4a50.74,50.74,0,0,1-13.57-5.74A29.08,29.08,0,0,1,507,94.64,35.62,35.62,0,0,1,503.22,78a35,35,0,0,1,12.65-27.3,50.68,50.68,0,0,1,34.3-11,49,49,0,0,1,34.62,11.9,40.47,40.47,0,0,1,13.32,29.55H571.73a18.46,18.46,0,0,0-6.25-13.56,23.71,23.71,0,0,0-16.06-5.16,26.54,26.54,0,0,0-14.9,3.82,11.51,11.51,0,0,0-5.58,9.83,9.84,9.84,0,0,0,3.83,8.32,29,29,0,0,0,10.07,4.66l13.49,3.66,14.9,4A51,51,0,0,1,585,102.55a28,28,0,0,1,9.82,11.15,37.14,37.14,0,0,1,3.83,17.48,33.28,33.28,0,0,1-14.07,27.3,59.94,59.94,0,0,1-37.2,10.41,65.26,65.26,0,0,1-22.64-3.58,38.71,38.71,0,0,1-15.49-9.66,44.85,44.85,0,0,1-8.32-13.32,46,46,0,0,1-3.16-15.23H524a18.7,18.7,0,0,0,6.66,13.65,27.12,27.12,0,0,0,18.39,5.41ZM647.22,42.37V166.8H620.34V42.37ZM795.13,97.72V166.8H771.49V151.41Q759,168,731,168.05a61.5,61.5,0,0,1-45.2-17.73,62.85,62.85,0,0,1-17.73-46.44,62.21,62.21,0,0,1,18.32-46.7,64.14,64.14,0,0,1,46.44-17.81,66.6,66.6,0,0,1,40.62,12.48A53.44,53.44,0,0,1,794.55,85.9H766.08a28.46,28.46,0,0,0-11.9-16.65,38.14,38.14,0,0,0-21.31-5.74,34.52,34.52,0,0,0-27.38,11.73,42.46,42.46,0,0,0-9.74,29.39,44.23,44.23,0,0,0,9.74,29.55,33.9,33.9,0,0,0,27,11.32q31.22,0,36.62-25H739.45V97.72Zm51.19-13.24V166.8h-25.8V42.37H847l56.43,82.32V42.37h25.81V166.8H902.51Zm156.4,82.32H956.44V42.37h46.28a68.88,68.88,0,0,1,50,17.14,59.12,59.12,0,0,1,17.89,44.87,59.1,59.1,0,0,1-17.89,44.94A69.23,69.23,0,0,1,1002.72,166.8Zm29.8-33.71a38.3,38.3,0,0,0,10.07-28.38,38.57,38.57,0,0,0-10.07-28.38A41,41,0,0,0,1002,66.09H982.91v77.24H1002a41,41,0,0,0,30.55-10.57Zm152.58,22.48a62.1,62.1,0,0,1-78.08,0,50,50,0,0,1-15.57-39.79V42.37h26.47v73.74a31.13,31.13,0,0,0,7,21.48,32.22,32.22,0,0,0,42.28,0,31.12,31.12,0,0,0,7-21.48V42.37h26.47v73.08a50,50,0,0,1-15.56,39.78Zm151.49-97.14a61.82,61.82,0,0,1,18.89,46.28,62,62,0,0,1-18.89,46.36,72.24,72.24,0,0,1-96.14,0,61.76,61.76,0,0,1-18.9-46.69,61.6,61.6,0,0,1,18.9-46.28,72,72,0,0,1,96.14,0Zm-20,75.08a40.09,40.09,0,0,0,10.9-29.3,40.23,40.23,0,0,0-10.9-29,41.62,41.62,0,0,0-56.27,0,40.2,40.2,0,0,0-10.82,29.3,40.05,40.05,0,0,0,10.82,29.3,41.62,41.62,0,0,0,56.27,0Z"/></clipPath><linearGradient id="linear-gradient-12" x1="240.78" y1="820.01" x2="1361.31" y2="820.01" gradientTransform="matrix(1, 0, 0, -1, 0, 931.51)" xlink:href="#linear-gradient-8"/></defs><g id="Layer_2" data-name="Layer 2"><g id="Layer_1-2" data-name="Layer 1"><g id="Layer_2-2" data-name="Layer 2"><g id="Layer_1-2-2" data-name="Layer 1-2"><path class="cls-2" d="M256,8.16a1.34,1.34,0,1,0-1.33-1.34h0A1.33,1.33,0,0,0,256,8.16Z" transform="translate(0 8.82)"/><path class="cls-3" d="M41.42,42a3.58,3.58,0,0,0,0-7.08,3.58,3.58,0,0,0,0,7.08Z" transform="translate(0 8.82)"/><path class="cls-4" d="M6.3,145.25a3.58,3.58,0,0,0,0-7.08,3.58,3.58,0,0,0,0,7.08Z" transform="translate(0 8.82)"/><path class="cls-5" d="M206.65,173.46a3.49,3.49,0,1,0-3.33-3.66V170a3.4,3.4,0,0,0,3.33,3.49Z" transform="translate(0 8.82)"/><path class="cls-6" d="M48.42,114a1.33,1.33,0,1,0-1.34-1.33h0A1.34,1.34,0,0,0,48.42,114Z" transform="translate(0 8.82)"/><path class="cls-7" d="M98.36,4.58a2.09,2.09,0,0,0,2-2.08,2.08,2.08,0,1,0-4.08-.83,1.94,1.94,0,0,0,0,.83A2.08,2.08,0,0,0,98.36,4.58Z" transform="translate(0 8.82)"/><path class="cls-8" d="M21,99.47a1.34,1.34,0,0,1-1.5-1.09c-1.83-6.24-2.83-7-8.82-6.74A1.33,1.33,0,0,1,9.21,90.4h0a1.42,1.42,0,0,1,1-1.58c5.74-1.75,6.41-2.58,6.49-9.15a1.58,1.58,0,0,1,1.17-1.5,1.42,1.42,0,0,1,1.5,1.08c1.83,6.24,2.83,7,8.82,6.74a1.33,1.33,0,0,1,1.41,1.25h0a1.51,1.51,0,0,1-1,1.58c-5.75,1.75-6.41,2.58-6.5,9.16A1.58,1.58,0,0,1,21,99.47Z" transform="translate(0 8.82)"/><path class="cls-9" d="M132.49,43.53a4.82,4.82,0,0,0,0,8.82,52.71,52.71,0,0,1,30.29,31.22A4.6,4.6,0,0,0,167,86.65a4.65,4.65,0,0,0,4.24-3.08,52.73,52.73,0,0,1,30.3-31.47,4.83,4.83,0,0,0,0-8.82,52.72,52.72,0,0,1-30.3-31.46A4.67,4.67,0,0,0,167,8.65a4.6,4.6,0,0,0-4.25,3.08A52.67,52.67,0,0,1,132.49,43.53ZM84.71,38.7A6.24,6.24,0,0,0,79.05,35a6.4,6.4,0,0,0-5.66,3.74,135.81,135.81,0,0,1-65,67.67,6.57,6.57,0,0,0,0,11.82,136.23,136.23,0,0,1,65,67.68,6.16,6.16,0,0,0,11.32,0,135.82,135.82,0,0,1,65.09-67.76,6.42,6.42,0,0,0,3.58-5.83,6.61,6.61,0,0,0-3.58-5.91A136.25,136.25,0,0,1,84.71,38.7Zm78.07,103.13a52.69,52.69,0,0,1-30.29,31.47,4.82,4.82,0,0,0,0,8.82,52.7,52.7,0,0,1,30.29,31.46,4.58,4.58,0,0,0,4.25,3.08,4.64,4.64,0,0,0,4.24-3.08,52.74,52.74,0,0,1,30.3-31.46,4.83,4.83,0,0,0,0-8.82,52.73,52.73,0,0,1-30.3-31.47,4.65,4.65,0,0,0-4.24-3.08A4.6,4.6,0,0,0,162.78,141.83Z" transform="translate(0 8.82)"/><path class="cls-10" d="M102,125.94C42.42,147.41-3.11,173.46.47,184s54.69,1.59,114.37-19.89,105-47.61,101.55-58.26S161.7,104.38,102,125.94Z" transform="translate(0 8.82)"/><path class="cls-11" d="M102,125.94C42.42,147.41-3.11,173.46.47,184s54.69,1.59,114.37-19.89,105-47.61,101.55-58.26S161.7,104.38,102,125.94Z" transform="translate(0 8.82)"/><path class="cls-12" d="M192.75,53.27a1.74,1.74,0,0,1-1.5-1.91c0-9.08-1.08-10.49-9.16-12.66a2.15,2.15,0,0,1-1-2.16A1.91,1.91,0,0,1,183,34.87c8.32,0,9.49-.83,12.15-9.48a1.86,1.86,0,0,1,3.67.58c0,9,1,10.4,9.07,12.57a2.08,2.08,0,0,1,1.41,2.16,1.91,1.91,0,0,1-1.91,1.67c-8.33,0-9.49.83-12.15,9.48A1.92,1.92,0,0,1,193,53.33.86.86,0,0,1,192.75,53.27Z" transform="translate(0 8.82)"/><g class="cls-13"><rect class="cls-14" x="240.78" width="1120.53" height="222.99"/></g></g></g></g></g></svg>